name Walk3.mot
datacolumns 19
datarows 15
range 0.87000000 0.88400000
endheader

                time	   L_ground_force_vx	   L_ground_force_vy	   L_ground_force_vz	   L_ground_force_px	   L_ground_force_py	   L_ground_force_pz	   R_ground_force_vx	   R_ground_force_vy	   R_ground_force_vz	   R_ground_force_px	   R_ground_force_py	   R_ground_force_pz	   L_ground_torque_x	   L_ground_torque_y	   L_ground_torque_z	   R_ground_torque_x	   R_ground_torque_y	   R_ground_torque_z	
          0.87000000	        -13.89207798	         41.93993835	         -0.35050838	         -0.14429499	          0.00000000	         -0.01336996	         -0.00000000	          0.00000000	          0.00000000	          0.00000000	          0.00000000	          0.00000000	          0.00000000	          0.15308264	          0.00000000	          0.00000000	          0.00000000	          0.00000000	
          0.87100000	        -14.73208669	         46.12458263	         -0.41420657	         -0.15300315	          0.00000000	         -0.01423612	         -0.00000000	          0.00000000	          0.00000000	          0.00000000	          0.00000000	          0.00000000	          0.00000000	          0.16391434	          0.00000000	          0.00000000	          0.00000000	          0.00000000	
          0.87200000	        -15.58931105	         50.50759479	         -0.48211329	         -0.16188863	          0.00000000	         -0.01512396	         -0.00000000	          0.00000000	          0.00000000	          0.00000000	          0.00000000	          0.00000000	          0.00000000	          0.17507561	          0.00000000	          0.00000000	          0.00000000	          0.00000000	
          0.87300000	        -16.46181059	         55.08930674	         -0.55433916	         -0.17093121	          0.00000000	         -0.01603186	         -0.00000000	          0.00000000	          0.00000000	          0.00000000	          0.00000000	          0.00000000	          0.00000000	          0.18655101	          0.00000000	          0.00000000	          0.00000000	          0.00000000	
          0.87400000	        -17.34740138	         59.86926060	         -0.63098725	         -0.18010814	          0.00000000	         -0.01695790	         -0.00000000	          0.00000000	          0.00000000	          0.00000000	          0.00000000	          0.00000000	          0.00000000	          0.19832231	          0.00000000	          0.00000000	          0.00000000	          0.00000000	
          0.87500000	        -18.24364254	         64.84613723	         -0.71215194	         -0.18939401	          0.00000000	         -0.01789997	         -0.00000000	          0.00000000	          0.00000000	          0.00000000	          0.00000000	          0.00000000	          0.00000000	          0.21036841	          0.00000000	          0.00000000	          0.00000000	          0.00000000	
          0.87600000	        -19.14782235	         70.01768164	         -0.79791775	         -0.19876059	          0.00000000	         -0.01885565	         -0.00000000	          0.00000000	          0.00000000	          0.00000000	          0.00000000	          0.00000000	          0.00000000	          0.22266510	          0.00000000	          0.00000000	          0.00000000	          0.00000000	
          0.87700000	        -20.05694434	         75.38062532	         -0.88835801	         -0.20817669	          0.00000000	         -0.01982226	         -0.00000000	          0.00000000	          0.00000000	          0.00000000	          0.00000000	          0.00000000	          0.00000000	          0.23518486	          0.00000000	          0.00000000	          0.00000000	          0.00000000	
          0.87800000	        -20.96772020	         80.93061928	         -0.98353365	         -0.21760844	          0.00000000	         -0.02079686	         -0.00000000	          0.00000000	          0.00000000	          0.00000000	          0.00000000	          0.00000000	          0.00000000	          0.24789696	          0.00000000	          0.00000000	          0.00000000	          0.00000000	
          0.87900000	        -21.87658795	         86.66221228	         -1.08349186	         -0.22702073	          0.00000000	         -0.02177628	         -0.00000000	          0.00000000	          0.00000000	          0.00000000	          0.00000000	          0.00000000	          0.00000000	          0.26076810	          0.00000000	          0.00000000	          0.00000000	          0.00000000	
          0.88000000	        -22.77976105	         92.56888358	         -1.18826496	         -0.23637952	          0.00000000	         -0.02275731	         -0.00000000	          0.00000000	          0.00000000	          0.00000000	          0.00000000	          0.00000000	          0.00000000	          0.27376394	          0.00000000	          0.00000000	          0.00000000	          0.00000000	
          0.88100000	        -23.67329115	         98.64309370	         -1.29786901	         -0.24565336	          0.00000000	         -0.02373677	         -0.00000000	          0.00000000	          0.00000000	          0.00000000	          0.00000000	          0.00000000	          0.00000000	          0.28685032	          0.00000000	          0.00000000	          0.00000000	          0.00000000	
          0.88200000	        -24.55313353	        104.87633173	         -1.41230176	         -0.25481364	          0.00000000	         -0.02471160	         -0.00000000	          0.00000000	          0.00000000	          0.00000000	          0.00000000	          0.00000000	          0.00000000	          0.29999407	          0.00000000	          0.00000000	          0.00000000	          0.00000000	
          0.88300000	        -25.41522074	        111.25917126	         -1.53153950	         -0.26383453	          0.00000000	         -0.02567888	         -0.00000000	          0.00000000	          0.00000000	          0.00000000	          0.00000000	          0.00000000	          0.00000000	          0.31316359	          0.00000000	          0.00000000	          0.00000000	          0.00000000	
          0.88400000	        -26.25554974	        117.78134618	         -1.65553206	         -0.27269283	          0.00000000	         -0.02663587	         -0.00000000	          0.00000000	          0.00000000	          0.00000000	          0.00000000	          0.00000000	          0.00000000	          0.32632930	          0.00000000	          0.00000000	          0.00000000	          0.00000000	
